<svg width="206" height="31" viewBox="0 0 206 31" fill="none" xmlns="http://www.w3.org/2000/svg">
<path d="M91.1217 12.2962C91.9524 12.2962 92.7435 12.4375 93.4951 12.72C94.2524 13.0026 94.9135 13.432 95.4786 13.9971C96.0437 14.5622 96.5014 15.2742 96.8405 16.1275C97.1795 16.9808 97.3491 17.9697 97.3491 19.1056V30.7409H93.2239V19.9645C93.2239 19.1564 93.1335 18.4896 92.9639 17.9641C92.7888 17.4442 92.5458 17.0317 92.2406 16.7322C91.9355 16.4383 91.5851 16.2349 91.1952 16.1275C90.8053 16.0202 90.3871 15.9637 89.952 15.9637C89.5621 15.9637 89.1608 16.0202 88.7596 16.1445C88.3528 16.2632 88.0024 16.4722 87.6916 16.7661C87.3864 17.0599 87.1321 17.4612 86.94 17.9584C86.7422 18.4614 86.6462 19.083 86.6462 19.8289V30.7353H82.504V19.8967C82.504 19.1338 82.4136 18.5009 82.2384 17.998C82.0632 17.4951 81.8315 17.0938 81.532 16.7887C81.2382 16.4835 80.8935 16.2688 80.4979 16.1501C80.108 16.0315 79.6785 15.9693 79.2208 15.9693C78.2375 15.9693 77.4408 16.2745 76.8305 16.8848C76.2201 17.4951 75.915 18.4218 75.915 19.6707V30.7409H71.7898V12.6918H75.689V14.986H75.7511C76.1862 14.1554 76.8305 13.4998 77.6668 13.0195C78.5088 12.5392 79.5203 12.2962 80.6957 12.2962C81.8089 12.2962 82.8092 12.5505 83.6907 13.0534C84.5779 13.5564 85.1826 14.2232 85.5103 15.0539C86.1432 14.1327 86.8892 13.4433 87.7537 12.9856C88.624 12.5279 89.7429 12.2962 91.1217 12.2962Z" fill="black"/>
<path d="M14.7999 12.2626H14.6586L24.8303 2.0852L26.9212 0H20.6656L18.5804 2.0852L8.40298 12.2626H8.39732V5.56619H0V20.6712L8.39732 12.2739C8.40298 12.2739 8.40298 12.2739 8.40863 12.2739L16.6421 20.6655V30.7864H25.0677V20.6938L16.8229 12.2626H14.7999Z" fill="#0064FF"/>
<path d="M10.495 23.5199H6.29639V30.787H10.495V23.5199Z" fill="#0064FF"/>
<path d="M47.3301 20.8358H37.537V30.7871H33.344V6.78186H37.537V16.7332H47.3301V6.78186H51.5231V30.7871H47.3301V20.8358Z" fill="black"/>
<path d="M61.6391 30.6978C60.3507 30.6978 59.1866 30.5169 58.1468 30.1496C57.1071 29.7823 56.2255 29.2624 55.4965 28.573C54.7619 27.8893 54.1968 27.036 53.7956 26.0188C53.3887 25.0016 53.1853 23.8488 53.1853 22.5661V20.4752C53.1853 19.1698 53.3887 18.0114 53.7956 17.0055C54.1968 15.9996 54.7676 15.152 55.4965 14.4682C56.2255 13.7845 57.1127 13.2589 58.1468 12.8916C59.1866 12.53 60.3451 12.3435 61.6391 12.3435C62.905 12.3435 64.0634 12.5243 65.1088 12.8916C66.1543 13.2589 67.0471 13.7788 67.7817 14.4682C68.5107 15.1577 69.0814 15.9996 69.4827 17.0055C69.8839 18.0114 70.0873 19.1698 70.0873 20.4752V22.5661C70.0873 23.8488 69.8839 25.0016 69.4827 26.0188C69.0758 27.036 68.5107 27.8893 67.7817 28.573C67.0471 29.2568 66.1599 29.7823 65.1088 30.1496C64.0634 30.5113 62.9106 30.6978 61.6391 30.6978ZM61.6391 27.1603C62.2494 27.1603 62.8202 27.0755 63.3401 26.906C63.86 26.7308 64.3177 26.4652 64.6963 26.1036C65.0806 25.7362 65.3801 25.2559 65.5948 24.6569C65.8152 24.0579 65.9226 23.3402 65.9226 22.5039V20.543C65.9226 18.8534 65.5383 17.6497 64.7585 16.9434C63.9843 16.237 62.9389 15.881 61.6335 15.881C60.3225 15.881 59.277 16.2313 58.5029 16.9434C57.7287 17.6497 57.3388 18.8477 57.3388 20.543V22.5039C57.3388 23.3402 57.4461 24.0579 57.6665 24.6569C57.8812 25.2559 58.1864 25.7362 58.565 26.1036C58.9436 26.4652 59.4014 26.7365 59.9269 26.906C60.4581 27.0755 61.0288 27.1603 61.6391 27.1603Z" fill="black"/>
<path d="M114.735 28.7991C113.859 29.3755 112.837 29.8388 111.655 30.1779C110.474 30.5226 109.033 30.6921 107.332 30.6921C106.287 30.6921 105.27 30.5565 104.287 30.2909C103.303 30.0253 102.427 29.5732 101.648 28.9403C100.873 28.3074 100.252 27.4654 99.7772 26.4031C99.3081 25.3463 99.0708 24.0183 99.0708 22.4361V20.6052C99.0708 19.1698 99.2855 17.9379 99.7094 16.8925C100.133 15.8527 100.721 14.9938 101.461 14.3213C102.207 13.6488 103.072 13.1516 104.066 12.8295C105.061 12.5074 106.134 12.3435 107.293 12.3435C108.429 12.3435 109.48 12.5074 110.452 12.8295C111.424 13.1516 112.26 13.6375 112.961 14.2931C113.662 14.9486 114.204 15.7623 114.6 16.7343C114.99 17.7119 115.187 18.8421 115.187 20.1248V23.0464H103.1C103.1 24.4591 103.479 25.5272 104.247 26.2448C105.01 26.9625 106.112 27.3242 107.559 27.3242C108.627 27.3242 109.576 27.2111 110.407 26.9851C111.237 26.7591 112.108 26.3861 113.029 25.8775L114.735 28.7991ZM111.226 19.9949V19.2207C111.226 18.7517 111.153 18.2996 111.011 17.8701C110.87 17.4406 110.633 17.0677 110.305 16.7456C109.977 16.4235 109.559 16.1692 109.062 15.9714C108.564 15.7736 107.948 15.6832 107.225 15.6832C105.852 15.6832 104.818 16.0335 104.128 16.7456C103.439 17.4519 103.094 18.3109 103.094 19.3168V19.9892H111.226V19.9949Z" fill="black"/>
<path d="M127.179 6.80452C128.835 6.80452 130.304 6.99665 131.581 7.38657C132.858 7.77083 134.096 8.43765 135.3 9.38701L133.039 12.5515C132.078 11.7548 131.129 11.2349 130.191 10.9862C129.253 10.7376 128.247 10.6133 127.179 10.6133C126.478 10.6133 125.789 10.715 125.111 10.9184C124.433 11.1218 123.834 11.4948 123.314 12.0317C122.788 12.5685 122.364 13.3031 122.037 14.2299C121.709 15.1566 121.545 16.3377 121.545 17.7787V20.169C121.545 21.3953 121.698 22.4407 122.003 23.2997C122.308 24.1586 122.715 24.8593 123.235 25.3962C123.749 25.933 124.342 26.3286 125.02 26.5716C125.693 26.8202 126.405 26.9445 127.151 26.9445C128.241 26.9445 129.366 26.7806 130.508 26.4472C131.655 26.1138 132.694 25.4753 133.633 24.5259L135.859 27.6904C135.158 28.3799 134.424 28.9224 133.644 29.3236C132.87 29.7191 132.101 30.0356 131.333 30.256C130.564 30.4764 129.818 30.6289 129.072 30.6911C128.332 30.7533 127.631 30.7872 126.976 30.7872C125.687 30.7872 124.461 30.6007 123.286 30.239C122.116 29.8717 121.093 29.2897 120.206 28.4929C119.324 27.6961 118.618 26.6846 118.092 25.4583C117.567 24.2321 117.307 22.7459 117.307 21.0054V16.8406C117.307 15.1001 117.561 13.597 118.075 12.3368C118.59 11.0766 119.29 10.0369 120.189 9.20618C121.087 8.38114 122.127 7.77083 123.32 7.38092C124.518 6.99665 125.8 6.80452 127.179 6.80452Z" fill="black"/>
<path d="M146.325 12.3425C147.133 12.3425 147.913 12.4611 148.671 12.7041C149.428 12.9415 150.095 13.3314 150.688 13.8682C151.276 14.4051 151.745 15.1001 152.095 15.9478C152.445 16.8011 152.621 17.8295 152.621 19.0275V30.7872H148.49V19.9147C148.49 17.2701 147.343 15.9478 145.048 15.9478C144.721 15.9478 144.336 15.993 143.884 16.0947C143.438 16.1908 143.008 16.3885 142.607 16.688C142.2 16.9819 141.855 17.4001 141.573 17.9482C141.29 18.4907 141.149 19.214 141.149 20.1125V30.7928H137.024V6.80452H140.923V14.8006H140.985C141.618 13.8852 142.404 13.241 143.33 12.8849C144.257 12.5289 145.252 12.3425 146.325 12.3425Z" fill="black"/>
<path d="M169.975 28.7991C169.099 29.3755 168.076 29.8388 166.895 30.1779C165.714 30.5226 164.273 30.6921 162.572 30.6921C161.527 30.6921 160.51 30.5565 159.526 30.2909C158.543 30.0253 157.667 29.5732 156.887 28.9403C156.113 28.3074 155.492 27.4654 155.017 26.4031C154.548 25.3463 154.311 24.0183 154.311 22.4361V20.6052C154.311 19.1698 154.525 17.9379 154.949 16.8925C155.373 15.8527 155.961 14.9938 156.701 14.3213C157.447 13.6488 158.311 13.1516 159.306 12.8295C160.301 12.5074 161.374 12.3435 162.533 12.3435C163.669 12.3435 164.72 12.5074 165.692 12.8295C166.664 13.1516 167.5 13.6375 168.201 14.2931C168.901 14.9486 169.444 15.7623 169.839 16.7343C170.229 17.7119 170.427 18.8421 170.427 20.1248V23.0464H158.34C158.34 24.4591 158.718 25.5272 159.487 26.2448C160.25 26.9625 161.352 27.3242 162.798 27.3242C163.866 27.3242 164.816 27.2111 165.646 26.9851C166.477 26.7591 167.347 26.3861 168.268 25.8775L169.975 28.7991ZM166.471 19.9949V19.2207C166.471 18.7517 166.398 18.2996 166.257 17.8701C166.115 17.4406 165.878 17.0677 165.55 16.7456C165.223 16.4235 164.804 16.1692 164.307 15.9714C163.804 15.7793 163.194 15.6832 162.471 15.6832C161.097 15.6832 160.063 16.0335 159.374 16.7456C158.684 17.4519 158.34 18.3109 158.34 19.3168V19.9892H166.471V19.9949Z" fill="black"/>
<path d="M180.291 12.3435C181.145 12.3435 181.896 12.4056 182.552 12.5187C183.207 12.6373 183.795 12.7899 184.321 12.982C184.846 13.1742 185.315 13.4002 185.733 13.6545C186.146 13.9088 186.53 14.1687 186.881 14.4287L184.88 17.3841C184.14 16.8021 183.4 16.4065 182.671 16.1918C181.936 15.977 181.145 15.8697 180.297 15.8697C179.772 15.8697 179.269 15.9488 178.788 16.1127C178.308 16.2765 177.884 16.5308 177.511 16.8868C177.138 17.2372 176.844 17.7006 176.63 18.2657C176.409 18.8364 176.302 19.5258 176.302 20.3396V22.4926C176.302 23.3911 176.426 24.1427 176.681 24.7417C176.929 25.3407 177.251 25.8154 177.647 26.1714C178.037 26.5217 178.478 26.7704 178.958 26.9116C179.438 27.0529 179.907 27.1207 180.371 27.1207C181.506 27.1207 182.45 26.9851 183.202 26.7195C183.959 26.4539 184.648 26.0866 185.281 25.6119L187.248 28.5674C186.638 29.1268 185.739 29.6184 184.558 30.0423C183.377 30.4717 181.97 30.6865 180.331 30.6865C177.669 30.6865 175.635 29.9632 174.239 28.5165C172.838 27.0699 172.143 25.0864 172.143 22.5548V20.3452C172.143 17.8193 172.872 15.8527 174.318 14.4456C175.765 13.0498 177.76 12.3435 180.291 12.3435Z" fill="black"/>
<path d="M198.009 20.4685L204.739 30.7928H199.868L195.144 23.424L192.889 25.7296V30.7928H188.764V6.80452H192.889V19.8978L200.184 12.3425H205.869L198.009 20.4685Z" fill="black"/>
</svg>
